<?xml version="1.0" encoding="utf-8"?>
<!-- Generator: Adobe Illustrator 21.1.0, SVG Export Plug-In . SVG Version: 6.00 Build 0)  -->
<svg version="1.1" id="Calque_1" xmlns="http://www.w3.org/2000/svg" xmlns:xlink="http://www.w3.org/1999/xlink" x="0px" y="0px"
	 viewBox="0 0 5010 1823" style="enable-background:new 0 0 5010 1823;" xml:space="preserve">
<style type="text/css">
	.st0{fill:#3C3B6E;stroke:#000000;stroke-width:10;stroke-miterlimit:10;}
	.st1{fill:#B22234;stroke:#000000;stroke-width:10;stroke-miterlimit:10;}
	.st2{fill:none;}
	.st3{fill:#FFFFFF;}
	.st4{font-family:'MyriadPro-Bold';}
	.st5{font-size:144px;}
	.st6{font-family:'MyriadPro-Regular';}
	.st7{font-size:59.9205px;}
	.st8{letter-spacing:1;}
	.st9{letter-spacing:22.9;}
	.st10{letter-spacing:11;}
	.st11{letter-spacing:3;}
	.st12{letter-spacing:-11;}
	.st13{letter-spacing:-10;}
	.st14{letter-spacing:12;}
	.st15{letter-spacing:18.9;}
	.st16{letter-spacing:-7;}
	.st17{letter-spacing:13.9;}
	.st18{letter-spacing:6;}
	.st19{letter-spacing:-6;}
	.st20{letter-spacing:-8;}
	.st21{letter-spacing:7;}
	.st22{fill:#FFFFFF;stroke:#000000;stroke-width:10;stroke-miterlimit:10;}
	.st23{fill:none;stroke:#000000;stroke-width:10;stroke-miterlimit:10;}
	.st24{font-size:60px;}
</style>
<rect x="5" y="5" class="st0" width="1669.5" height="1189"/>
<rect x="3336.2" y="5" class="st1" width="1668.8" height="1189"/>
<rect x="185.9" y="102.8" class="st2" width="1307.7" height="473.9"/>
<text transform="matrix(1 0 0 1 595.04 205.0811)"><tspan x="0" y="0" class="st3 st4 st5">Acteurs</tspan><tspan x="-350.6" y="172.8" class="st3 st4 st5">gouvernementaux</tspan></text>
<rect x="1851.1" y="102.8" class="st2" width="1307.7" height="473.9"/>
<text transform="matrix(1 0 0 1 2260.2759 205.0811)"><tspan x="0" y="0" class="st4 st5">Acteurs</tspan><tspan x="-48.4" y="172.8" class="st4 st5">solitaires</tspan></text>
<rect x="3516.7" y="102.8" class="st2" width="1307.7" height="473.9"/>
<text transform="matrix(1 0 0 1 3540.5339 205.0811)"><tspan x="0" y="0" class="st4 st5">Potentiels hackeurs </tspan><tspan x="195.4" y="172.8" class="st4 st5">&amp; disrupteurs</tspan></text>
<rect x="205.5" y="555.5" class="st2" width="795.5" height="534.5"/>
<text transform="matrix(1.0037 0 0 1 205.5 598.043)"><tspan x="0" y="0" class="st3 st6 st7">Governement Obama </tspan><tspan x="0" y="81" class="st3 st6 st7">Governement Trump</tspan><tspan x="525.6" y="81" class="st3 st6 st7 st8">	</tspan><tspan x="539.3" y="81" class="st3 st6 st7 st9">	</tspan><tspan x="0" y="162" class="st3 st6 st7">Gouvernement Putin</tspan><tspan x="0" y="243" class="st3 st6 st7">Agences de renseignement </tspan><tspan x="0" y="324" class="st3 st6 st7">américaines</tspan><tspan x="299.2" y="324" class="st3 st6 st7 st10">	</tspan><tspan x="0" y="405" class="st3 st6 st7">Le Parti démocrate (DNC)</tspan><tspan x="630.6" y="405" class="st3 st6 st7 st11">	</tspan><tspan x="647.1" y="405" class="st3 st6 st7 st9">		</tspan><tspan x="0" y="486" class="st3 st6 st7">Le Parti Républicain (RNC)</tspan><tspan x="645.7" y="486" class="st3 st6 st7 st12">	</tspan><tspan x="647.1" y="486" class="st3 st6 st7 st9">		</tspan></text>
<rect x="919" y="555.5" class="st2" width="795.5" height="534.5"/>
<text transform="matrix(1.0037 0 0 1 919.0279 598.043)"><tspan x="0" y="0" class="st3 st6 st7">La cour Suprême</tspan><tspan x="0" y="81" class="st3 st6 st7">Machines de votes</tspan><tspan x="0" y="162" class="st3 st6 st7">Databases</tspan><tspan x="0" y="243" class="st3 st6 st7">Senate</tspan><tspan x="0" y="324" class="st3 st6 st7">House of Representative</tspan><tspan x="608.9" y="324" class="st3 st6 st7 st13">	</tspan><tspan x="611.2" y="324" class="st3 st6 st7 st9">	</tspan><tspan x="0" y="405" class="st3 st6 st7">Robert Mueller</tspan><tspan x="370.5" y="405" class="st3 st6 st7 st14">	</tspan><tspan x="0" y="486" class="st3 st6 st7">John Podesta</tspan><tspan x="335.3" y="486" class="st3 st6 st7 st10">	</tspan><tspan x="359.5" y="486" class="st3 st6 st7 st9">		</tspan></text>
<rect x="2089" y="555.5" class="st2" width="1029.8" height="534.5"/>
<text transform="matrix(1.0037 0 0 1 2089.0435 598.043)"><tspan x="0" y="0" class="st6 st7">John Laurits (bloggeur)</tspan><tspan x="579.1" y="0" class="st6 st7 st15">	</tspan><tspan x="611.2" y="0" class="st6 st7 st9">		</tspan><tspan x="0" y="81" class="st6 st7">Entreprises expertes en cybersecurité</tspan><tspan x="929.7" y="81" class="st6 st7 st16">	</tspan><tspan x="934.8" y="81" class="st6 st7 st9">		</tspan><tspan x="0" y="162" class="st6 st7">Julian Assange</tspan><tspan x="368" y="162" class="st6 st7 st17">	</tspan><tspan x="395.5" y="162" class="st6 st7 st9">		</tspan><tspan x="0" y="243" class="st6 st7">Anonymous</tspan><tspan x="303.9" y="243" class="st6 st7 st18">	</tspan><tspan x="323.6" y="243" class="st6 st7 st9">		</tspan><tspan x="0" y="324" class="st6 st7">darkreading.com</tspan><tspan x="425.6" y="324" class="st6 st7 st19">	</tspan><tspan x="431.4" y="324" class="st6 st7 st9">		</tspan><tspan x="0" y="405" class="st6 st7">Ruben Major</tspan><tspan x="319.4" y="405" class="st6 st7 st20">	</tspan></text>
<rect x="4009" y="555.5" class="st2" width="880" height="534.5"/>
<text transform="matrix(1.0037 0 0 1 4009 598.043)"><tspan x="0" y="0" class="st3 st6 st7">Guccifer 2.0</tspan><tspan x="0" y="81" class="st3 st6 st7">Fancy bear et Cozy Bear</tspan><tspan x="592.1" y="81" class="st3 st6 st7 st18">	</tspan><tspan x="611.2" y="81" class="st3 st6 st7 st9">		</tspan><tspan x="0" y="162" class="st3 st6 st7">Usines à Trolls</tspan><tspan x="0" y="243" class="st3 st6 st7">4Chan</tspan><tspan x="0" y="324" class="st3 st6 st7">Reddit</tspan><tspan x="0" y="405" class="st3 st6 st7">Wikileaks</tspan><tspan x="231.7" y="405" class="st3 st6 st7 st21">	</tspan><tspan x="251.7" y="405" class="st3 st6 st7 st9">	</tspan></text>
<rect x="5" y="1194" class="st22" width="5000" height="624"/>
<rect x="1674.5" y="5" class="st23" width="1661.7" height="1189"/>
<rect x="43" y="1245" class="st2" width="4912" height="532"/>
<text transform="matrix(1 0 0 1 43 1287.5996)"><tspan x="0" y="0" class="st4 st24" style="text-decoration: underline;">Description :</tspan><tspan x="337.6" y="0" class="st6 st24">  Lorem ipsum dolor sit amet, consectetur adipiscing elit. Sed non risus. Suspendisse lectus tortor, dignissim sit amet, adipiscing nec, ultricies sed, dolor. Cras elementum ultrices diam. </tspan><tspan x="0" y="81" class="st6 st24">Maecenas ligula massa, varius a, semper congue, euismod non, mi. Proin porttitor, orci nec nonummy molestie, enim est eleifend mi, non fermentum diam nisl sit amet erat. Duis semper. Duis arcu </tspan><tspan x="0" y="162" class="st6 st24">massa, scelerisque vitae, consequat in, pretium a, enim. Pellentesque congue. </tspan></text>
</svg>
