<?xml version="1.0" encoding="utf-8"?>
<!-- Generator: Adobe Illustrator 21.1.0, SVG Export Plug-In . SVG Version: 6.00 Build 0)  -->
<svg version="1.1" id="Calque_1" xmlns="http://www.w3.org/2000/svg" xmlns:xlink="http://www.w3.org/1999/xlink" x="0px" y="0px"
	 viewBox="0 0 377 28.8" style="enable-background:new 0 0 377 28.8;" xml:space="preserve">
<style type="text/css">
	.st0{fill:#B2B2B2;}
	.st1{fill:#B22234;}
	.st2{fill:#3C3B6E;stroke:#000000;stroke-width:0.5;stroke-miterlimit:10;}
	.st3{fill:#FFFFFF;stroke:#000000;stroke-width:0.5;stroke-miterlimit:10;}
	.st4{fill:none;}
	.st5{font-family:'ArialMT';}
	.st6{font-size:8px;}
</style>
<g>
	<path class="st0" d="M9,28.7c-4.9,0-8.9-4-8.9-8.9V9c0-4.9,4-8.9,8.9-8.9h359c4.9,0,8.9,4,8.9,8.9v10.8c0,4.9-4,8.9-8.9,8.9H9z"/>
	<path d="M368,0.3c4.8,0,8.8,3.9,8.8,8.7v10.8c0,4.8-3.9,8.8-8.8,8.8H9c-4.8,0-8.8-3.9-8.8-8.8V9c0-4.8,3.9-8.7,8.8-8.7H368 M368,0
		H9C4.1,0,0,4.1,0,9v10.8c0,5,4.1,9,9,9h359c5,0,9-4,9-9V9C377,4.1,373,0,368,0L368,0z"/>
</g>
<g>
	<rect x="234.1" y="7.5" class="st1" width="13.9" height="13.9"/>
	<path d="M247.7,7.7v13.4h-13.4V7.7H247.7 M248.2,7.2h-14.4v14.4h14.4V7.2L248.2,7.2z"/>
</g>
<rect x="10.2" y="7.2" class="st2" width="14.4" height="14.4"/>
<rect x="140.2" y="7.2" class="st3" width="14.4" height="14.4"/>
<rect x="252.4" y="10.4" class="st4" width="130.6" height="9.2"/>
<text transform="matrix(1 0 0 1 252.4233 16.1349)" class="st5 st6">Potentiels hackeurs / disrupteurs</text>
<rect x="28.4" y="10.6" class="st4" width="106.6" height="11"/>
<text transform="matrix(1 0 0 1 28.4233 16.3166)" class="st5 st6">Acteurs gouvernementaux</text>
<rect x="157.4" y="10.4" class="st4" width="69.6" height="11.2"/>
<text transform="matrix(1 0 0 1 157.4233 16.1349)" class="st5 st6">Acteurs solitaires</text>
</svg>
