<?xml version="1.0" encoding="utf-8"?>
<!-- Generator: Adobe Illustrator 21.1.0, SVG Export Plug-In . SVG Version: 6.00 Build 0)  -->
<svg version="1.1" xmlns="http://www.w3.org/2000/svg" xmlns:xlink="http://www.w3.org/1999/xlink" x="0px" y="0px"
	 viewBox="0 0 1366 768" style="enable-background:new 0 0 1366 768;" xml:space="preserve">
<style type="text/css">
	.st0{fill:#063854;}
	.st1{fill:#BF2900;}
	.st2{fill:none;}
	.st3{fill:#FFFFFF;}
	.st4{font-family:'MyriadPro-Regular';}
	.st5{font-size:14.7402px;}
	.st6{fill:#683535;stroke:#EF8686;stroke-width:4;stroke-miterlimit:10;}
	.st7{fill:#564266;stroke:#BD9FD1;stroke-width:6;stroke-miterlimit:10;}
	.st8{letter-spacing:18;}
	.st9{fill:#3E5C6B;stroke:#A5CFE5;stroke-width:5;stroke-miterlimit:10;}
	.st10{font-size:13px;}
	.st11{fill:#FFDA44;stroke:#000000;stroke-width:2;stroke-miterlimit:10;}
	.st12{fill:#564266;stroke:#BD9FD1;stroke-width:8;stroke-miterlimit:10;}
	.st13{font-size:11px;}
</style>
<g id="Calque_1">
	<g>
		<path class="st0" d="M606.6,433.3c-5.5,0-10-4.5-10-10v-66.1c0-5.5,4.5-10,10-10h119.6c5.5,0,10,4.5,10,10v66.1
			c0,5.5-4.5,10-10,10H606.6z"/>
		<path class="st1" d="M726.2,349.3c4.4,0,8,3.6,8,8v66.1c0,4.4-3.6,8-8,8H606.6c-4.4,0-8-3.6-8-8v-66.1c0-4.4,3.6-8,8-8H726.2
			 M726.2,345.3H606.6c-6.6,0-12,5.4-12,12v66.1c0,6.6,5.4,12,12,12h119.6c6.6,0,12-5.4,12-12v-66.1
			C738.2,350.7,732.8,345.3,726.2,345.3L726.2,345.3z"/>
	</g>
	<rect x="598.2" y="342" class="st2" width="136.8" height="90.1"/>
	<text transform="matrix(1 0 0 1 616.5596 370.1382)"><tspan x="0" y="0" class="st3 st4 st5">Le «piratage» de </tspan><tspan x="22" y="17.7" class="st3 st4 st5">l’élection </tspan><tspan x="8.1" y="35.4" class="st3 st4 st5">présidentielle </tspan><tspan x="16.1" y="53.1" class="st3 st4 st5">américaine</tspan></text>
</g>
<g id="Calque_2">
	<path class="st6" d="M507.3,297.8H367.5c-6.6,0-12-5.4-12-12v-48.9c0-6.6,5.4-12,12-12h139.8c6.6,0,12,5.4,12,12v48.9
		C519.3,292.4,513.9,297.8,507.3,297.8z"/>
	<rect x="360.9" y="234.7" class="st2" width="153.4" height="64.6"/>
	<text transform="matrix(1 0 0 1 377.4282 262.9019)" class="st3 st4 st5">Quelles méthodes ?</text>
</g>
<g id="Calque_4">
	<path class="st6" d="M967,237.7H827.2c-6.6,0-12-5.4-12-12v-48.9c0-6.6,5.4-12,12-12H967c6.6,0,12,5.4,12,12v48.9
		C979,232.3,973.6,237.7,967,237.7z"/>
	<rect x="825.6" y="195.1" class="st2" width="153.4" height="64.6"/>
	<text transform="matrix(1 0 0 1 837.2539 205.5913)" class="st3 st4 st5">Qui est responsable ?</text>
</g>
<g id="Calque_5">
	<path class="st6" d="M1035,559.9H895.2c-6.6,0-12-5.4-12-12V499c0-6.6,5.4-12,12-12H1035c6.6,0,12,5.4,12,12v48.9
		C1047,554.5,1041.6,559.9,1035,559.9z"/>
	<rect x="888.7" y="514" class="st2" width="153.4" height="64.6"/>
	<text transform="matrix(1 0 0 1 892.3887 524.4736)" class="st3 st4 st5">Quelles conséquences ?</text>
</g>
<g id="Calque_6">
	<path class="st6" d="M471.3,559H331.5c-6.6,0-12-5.4-12-12v-48.9c0-6.6,5.4-12,12-12h139.8c6.6,0,12,5.4,12,12V547
		C483.3,553.6,477.9,559,471.3,559z"/>
	<rect x="324.1" y="512.3" class="st2" width="153.4" height="64.6"/>
	<text transform="matrix(1 0 0 1 367.856 522.75)" class="st3 st4 st5">Pourquoi ?</text>
</g>
<g id="Calque_8">
	<path class="st7" d="M940.6,124.2H800c-6.6,0-12-5.4-12-12V83c0-6.6,5.4-12,12-12h140.6c6.6,0,12,5.4,12,12v29.2
		C952.6,118.8,947.2,124.2,940.6,124.2z"/>
	<rect x="788" y="81.9" class="st2" width="166" height="75.3"/>
	<text transform="matrix(1 0 0 1 828.1982 92.3892)"><tspan x="0" y="0" class="st3 st4 st5">Etat profond / </tspan><tspan x="5" y="17.7" class="st3 st4 st5">Cabinet noir</tspan></text>
	<path class="st7" d="M1108,137h-81.9c-6.6,0-12-5.4-12-12v-6.9c0-6.6,5.4-12,12-12h81.9c6.6,0,12,5.4,12,12v6.9
		C1120,131.6,1114.6,137,1108,137z"/>
	<rect x="984.8" y="114.3" class="st2" width="166" height="46.1"/>
	<text transform="matrix(1 0 0 1 1031.6807 124.7749)" class="st3 st4 st5">Guccifer 2.0</text>
	<path class="st7" d="M1175.8,250.8h-140.6c-6.6,0-12-5.4-12-12v-47.2c0-6.6,5.4-12,12-12h140.6c6.6,0,12,5.4,12,12v47.2
		C1187.8,245.4,1182.4,250.8,1175.8,250.8z"/>
	<rect x="1023.2" y="207.1" class="st2" width="166" height="75.3"/>
	<text transform="matrix(1 0 0 1 1055.708 217.6021)" class="st3 st4 st5">Est-ce la Russie ?</text>
	<path class="st7" d="M520.6,178.2H380c-6.6,0-12-5.4-12-12V119c0-6.6,5.4-12,12-12h140.6c6.6,0,12,5.4,12,12v47.2
		C532.6,172.8,527.2,178.2,520.6,178.2z"/>
	<rect x="371" y="134.9" class="st2" width="166" height="30.1"/>
	<text transform="matrix(1 0 0 1 411.9209 145.3892)" class="st3 st4 st5">Usines à trolls</text>
	<path class="st7" d="M281,543H147.1c-6.6,0-12-5.4-12-12v-18.9c0-6.6,5.4-12,12-12H281c6.6,0,12,5.4,12,12V531
		C293,537.6,287.6,543,281,543z"/>
	<rect x="131.8" y="514.3" class="st2" width="166" height="46.1"/>
	<text transform="matrix(1 0 0 1 145.1992 524.7749)" class="st3 st4 st5">Contre les Démocrates</text>
	<path class="st7" d="M288,595.1h-79.9c-6.6,0-12-5.4-12-12V572c0-6.6,5.4-12,12-12H288c6.6,0,12,5.4,12,12v11.1
		C300,589.7,294.6,595.1,288,595.1z"/>
	<rect x="165.8" y="570.3" class="st2" width="166" height="46.1"/>
	<text transform="matrix(1 0 0 1 204.2051 580.7749)" class="st3 st4 st5">Donald Trump</text>
	<path class="st7" d="M384,620.1h-45.9c-6.6,0-12-5.4-12-12V601c0-6.6,5.4-12,12-12H384c6.6,0,12,5.4,12,12v7.1
		C396,614.7,390.6,620.1,384,620.1z"/>
	<rect x="278.8" y="597.3" class="st2" width="166" height="46.1"/>
	<text transform="matrix(1 0 0 1 342.4551 607.7749)" class="st3 st4 st5">Russie</text>
	<path class="st7" d="M546,582.1h-21.9c-6.6,0-12-5.4-12-12V563c0-6.6,5.4-12,12-12H546c6.6,0,12,5.4,12,12v7.1
		C558,576.7,552.6,582.1,546,582.1z"/>
	<rect x="382.8" y="583.3" class="st2" width="166" height="46.1"/>
	<text transform="matrix(1 0 0 1 456.3896 593.7749)" class="st3 st4 st5">FBI</text>
	<path class="st7" d="M504,648h-81.9c-6.6,0-12-5.4-12-12v-32.9c0-6.6,5.4-12,12-12H504c6.6,0,12,5.4,12,12V636
		C516,642.6,510.6,648,504,648z"/>
	<rect x="414" y="602.8" class="st2" width="99" height="61.2"/>
	<text transform="matrix(1 0 0 1 420.5918 613.2163)"><tspan x="0" y="0" class="st3 st4 st5">Destabiliser le </tspan><tspan x="18.9" y="17.7" class="st3 st4 st5">pouvoir</tspan></text>
	<rect x="451.8" y="561.3" class="st2" width="166" height="46.1"/>
	<text transform="matrix(1 0 0 1 525.3896 571.7749)" class="st3 st4 st5">FBI</text>
	<path class="st7" d="M1270,561h-163c-6.6,0-12-5.4-12-12v-43c0-6.6,5.4-12,12-12h163c6.6,0,12,5.4,12,12v43
		C1282,555.6,1276.6,561,1270,561z"/>
	<rect x="1105" y="504.9" class="st2" width="166" height="75.3"/>
	<text transform="matrix(1 0 0 1 1105.0215 515.3892)"><tspan x="0" y="0" class="st3 st4 st5">Trahison</tspan><tspan x="53" y="0" class="st3 st4 st5 st8"> </tspan><tspan x="74.5" y="0" class="st3 st4 st5">suprême</tspan><tspan x="128.7" y="0" class="st3 st4 st5 st8"> </tspan><tspan x="150.3" y="0" class="st3 st4 st5">de </tspan><tspan x="0" y="17.7" class="st3 st4 st5">collaboration</tspan><tspan x="81.8" y="17.7" class="st3 st4 st5"> </tspan><tspan x="85.6" y="17.7" class="st3 st4 st5">avec</tspan><tspan x="113.8" y="17.7" class="st3 st4 st5"> </tspan><tspan x="117.6" y="17.7" class="st3 st4 st5">un</tspan><tspan x="133.9" y="17.7" class="st3 st4 st5"> </tspan><tspan x="137.7" y="17.7" class="st3 st4 st5">pays </tspan><tspan x="56.6" y="35.4" class="st3 st4 st5">étranger</tspan></text>
	<path class="st7" d="M1047,631H884c-6.6,0-12-5.4-12-12v-9c0-6.6,5.4-12,12-12h163c6.6,0,12,5.4,12,12v9
		C1059,625.6,1053.6,631,1047,631z"/>
	<rect x="882" y="608.9" class="st2" width="166" height="20.1"/>
	<text transform="matrix(1 0 0 1 900.3232 619.3892)" class="st3 st4 st5">Validité des élections</text>
</g>
<g id="Calque_9">
	<path class="st9" d="M1344.5,209.5h-88c-6.6,0-12-5.4-12-12v-21c0-6.6,5.4-12,12-12h88c6.6,0,12,5.4,12,12v21
		C1356.5,204.1,1351.1,209.5,1344.5,209.5z"/>
	<rect x="1244.7" y="180" class="st2" width="112" height="53.3"/>
	<text transform="matrix(1 0 0 1 1259.5098 189.23)" class="st3 st4 st10">Gouvernement</text>
	<path class="st9" d="M1344.5,270.5h-88c-6.6,0-12-5.4-12-12v-21c0-6.6,5.4-12,12-12h88c6.6,0,12,5.4,12,12v21
		C1356.5,265.1,1351.1,270.5,1344.5,270.5z"/>
	<rect x="1244.7" y="241" class="st2" width="112" height="53.3"/>
	<text transform="matrix(1 0 0 1 1279.3799 250.23)" class="st3 st4 st10">Hackers</text>
	<path class="st9" d="M1175.5,687.5h-88c-6.6,0-12-5.4-12-12v-21c0-6.6,5.4-12,12-12h88c6.6,0,12,5.4,12,12v21
		C1187.5,682.1,1182.1,687.5,1175.5,687.5z"/>
	<rect x="1075.7" y="658" class="st2" width="112" height="53.3"/>
	<text transform="matrix(1 0 0 1 1090.5098 667.23)" class="st3 st4 st10">Gouvernement</text>
	<path class="st9" d="M1009.5,706.5h-88c-6.6,0-12-5.4-12-12v-21c0-6.6,5.4-12,12-12h88c6.6,0,12,5.4,12,12v21
		C1021.5,701.1,1016.1,706.5,1009.5,706.5z"/>
	<rect x="909.7" y="677" class="st2" width="112" height="53.3"/>
	<text transform="matrix(1 0 0 1 944.3799 686.23)" class="st3 st4 st10">Hackers</text>
</g>
<g id="Calque_7">
	<g>
		<path class="st11" d="M870.8,117.1l-4.7,15.2c-0.1,0.4,0,0.8,0.3,1.1c0.3,0.3,0.6,0.4,1,0.3l5.9-2.3l14.6,38
			c0.1,0.3,0.3,0.5,0.5,0.6c0.2,0.1,0.5,0.1,0.7,0l5-1.9c0.2-0.1,0.4-0.3,0.5-0.5c0.1-0.2,0.1-0.5,0-0.8l-14.6-38l5.9-2.3
			c0.4-0.1,0.5-0.4,0.5-0.9c0-0.4-0.2-0.8-0.6-1l-13.8-8.1c-0.3-0.1-0.5-0.2-0.7-0.1C871.1,116.6,870.9,116.8,870.8,117.1z"/>
	</g>
	<g>
		<path class="st11" d="M1022.6,127.7l-19,3.5c-0.5,0.1-0.9,0.4-1.2,0.9c-0.3,0.5-0.3,0.9-0.1,1.2l4.1,4.7l-40.7,35.4
			c-0.3,0.3-0.5,0.5-0.6,0.8c-0.1,0.3,0,0.5,0.1,0.7l3.5,4.1c0.2,0.2,0.4,0.3,0.7,0.2c0.3,0,0.6-0.2,0.9-0.5l40.7-35.4l4.1,4.7
			c0.2,0.3,0.6,0.3,1.2,0.1c0.5-0.2,0.9-0.6,1-1.1l6-18.4c0.1-0.3,0.1-0.6-0.1-0.8C1023.2,127.7,1023,127.6,1022.6,127.7z"/>
	</g>
	<g>
		<path class="st11" d="M1029.8,215.9l-10.8-11.7c-0.3-0.3-0.7-0.4-1.1-0.3c-0.4,0.1-0.7,0.3-0.7,0.7l-1,6.2l-40.2-6.4
			c-0.3,0-0.6,0-0.8,0.1c-0.2,0.1-0.4,0.3-0.4,0.6l-0.8,5.3c0,0.3,0,0.5,0.2,0.7c0.2,0.2,0.4,0.3,0.7,0.4l40.2,6.4l-1,6.2
			c-0.1,0.4,0.1,0.7,0.5,0.9c0.4,0.2,0.8,0.2,1.2,0l13.9-7.9c0.2-0.2,0.4-0.4,0.4-0.6C1030.1,216.3,1030,216.1,1029.8,215.9z"/>
	</g>
	<circle class="st12" cx="1004.4" cy="64.9" r="0"/>
	<g id="Calque_3">
		<g>
			<g>
				<path class="st11" d="M434.4,279.4l0.1,52.6c0,1.3,1.1,2,2.5,1.5l18.9-6.3c1.4-0.5,2.5-0.8,2.5-0.8c0,0,0,0,0.1,0.1
					c2.9,2.7,6.2,5.2,9.8,8.1c1.8,1.4,3.7,2.8,5.7,4.3c1,0.7,2,1.5,3.1,2.2c0.5,0.4,1,0.8,1.6,1.1c0.5,0.4,1.1,0.7,1.6,1.1
					c2.2,1.5,4.4,3,6.7,4.5c2.3,1.5,4.8,3,7.2,4.5c2.4,1.5,5,2.9,7.6,4.4c1.3,0.7,2.6,1.4,3.9,2.2c1.3,0.7,2.7,1.4,4,2.1
					c2.7,1.4,5.3,2.8,8.1,4c1.4,0.6,2.7,1.3,4.1,1.9c1.4,0.6,2.7,1.3,4.1,1.8c2.8,1.2,5.5,2.4,8.3,3.5c2.8,1,5.5,2.1,8.2,3.1
					c2.7,1,5.5,1.8,8.1,2.7c1.3,0.5,2.7,0.9,4,1.2c1.3,0.4,2.6,0.8,3.9,1.1c1.3,0.4,2.6,0.8,3.8,1.1c1.3,0.3,2.5,0.6,3.8,0.9
					c2.5,0.6,4.9,1.3,7.2,1.7c2.3,0.5,4.6,0.9,6.8,1.4c2.2,0.4,4.3,0.7,6.3,1c1,0.2,2.1,0.3,3,0.5c0.9,0.1,1.8,0.2,2.7,0.3
					c1.8,0.2,3.5,0.4,5,0.6c1.6,0.2,3.1,0.4,4.4,0.4c1.4,0.1,2.6,0.1,3.7,0.2c1.6,0.1,2.9,0.1,4,0.2c1.7,0.1,1.6-0.2-0.1-0.6
					c-1.1-0.3-2.5-0.6-4.1-0.9c-1.1-0.3-2.4-0.6-3.8-0.9c-1.4-0.3-2.9-0.8-4.5-1.2c-1.6-0.5-3.3-1-5.2-1.5c-0.9-0.3-1.8-0.5-2.8-0.8
					c-0.9-0.3-1.8-0.6-2.8-0.9c-1.9-0.7-4-1.3-6-2c-2.1-0.8-4.2-1.6-6.4-2.4c-2.2-0.8-4.4-1.8-6.7-2.7c-1.1-0.5-2.3-1-3.4-1.5
					c-1.1-0.5-2.3-1.1-3.4-1.6c-1.1-0.5-2.3-1.1-3.5-1.6c-1.2-0.5-2.3-1.1-3.5-1.7c-2.3-1.2-4.7-2.4-7-3.6c-2.3-1.3-4.6-2.6-6.9-3.9
					c-2.3-1.4-4.5-2.8-6.8-4.1c-1.1-0.7-2.2-1.4-3.3-2.1l-3.2-2.2c-2.2-1.4-4.2-3-6.3-4.4c-1-0.7-2-1.5-3-2.2
					c-1-0.8-1.9-1.5-2.9-2.3c-1.9-1.5-3.8-3-5.6-4.5c-1.8-1.5-3.5-3-5.1-4.5c-1.6-1.5-3.2-3-4.7-4.4c-0.4-0.4-0.8-0.7-1.1-1.1
					c-0.4-0.4-0.7-0.7-1-1.1c-0.7-0.7-1.4-1.4-2-2.1c-1.3-1.4-2.7-2.7-3.8-4c-0.7-0.8-1.4-1.6-2.1-2.3c-1.1-1.3-0.9-2.7,0.4-3.1
					l19.5-6.5c1.4-0.5,1.1-1.4-0.7-2.1l-70.3-29.3C435.8,277.6,434.4,278.1,434.4,279.4z"/>
			</g>
		</g>
		<g>
			<g>
				<path class="st11" d="M830.7,203l-69.5-24.4c-1.7-0.6-2.7,0.4-2.3,2.2l6.3,25.1c0.4,1.8,0.8,3.3,0.7,3.3c0,0-0.1,0-0.1,0.1
					c-3.8,2.2-7.5,4.9-11.7,7.7c-2.1,1.4-4.2,3.1-6.3,4.7c-1.1,0.8-2.2,1.7-3.3,2.5c-0.6,0.4-1.1,0.9-1.7,1.3
					c-0.5,0.5-1.1,0.9-1.6,1.4c-2.2,1.9-4.4,3.8-6.7,5.8c-2.2,2-4.4,4.2-6.7,6.4c-2.3,2.1-4.4,4.5-6.6,6.8c-1.1,1.2-2.2,2.3-3.3,3.5
					c-1,1.2-2.1,2.5-3.2,3.7c-2.1,2.5-4.3,4.9-6.2,7.6c-1,1.3-2,2.6-3,3.9c-1,1.3-2,2.6-2.9,4c-1.8,2.7-3.7,5.4-5.5,8.1
					c-1.7,2.7-3.3,5.5-5,8.2c-1.6,2.8-3,5.5-4.5,8.2c-0.8,1.3-1.4,2.7-2.1,4.1c-0.7,1.4-1.3,2.7-1.9,4.1c-0.6,1.3-1.3,2.6-1.9,4
					c-0.6,1.3-1.1,2.7-1.6,4c-1.1,2.6-2.2,5.1-3,7.7c-0.9,2.5-1.7,4.9-2.6,7.3c-0.7,2.4-1.4,4.7-2,6.9c-0.3,1.1-0.7,2.2-1,3.3
					c-0.2,1-0.5,2.1-0.7,3.1c-0.4,2-0.9,3.9-1.3,5.6c-0.4,1.8-0.8,3.4-1.1,5c-0.2,1.6-0.5,3-0.7,4.3c-0.3,1.8-0.5,3.3-0.7,4.6
					c-0.3,1.9,0.1,2,0.8,0.1c0.5-1.2,1-2.6,1.7-4.3c0.5-1.2,1-2.6,1.6-4c0.5-1.5,1.4-3,2.1-4.7c0.8-1.7,1.6-3.5,2.5-5.3
					c0.4-0.9,0.9-1.9,1.4-2.9c0.5-0.9,1-1.8,1.5-2.8c1.1-2,2.2-4,3.4-6.1c1.3-2.1,2.6-4.2,3.9-6.3c1.3-2.2,2.8-4.3,4.3-6.5
					c0.8-1.1,1.5-2.2,2.3-3.3c0.8-1.1,1.7-2.2,2.5-3.3c0.8-1.1,1.7-2.2,2.5-3.3c0.8-1.1,1.7-2.2,2.6-3.3c1.8-2.1,3.7-4.3,5.6-6.5
					c2-2.1,3.9-4.2,5.9-6.3c2-2,4.2-4,6.2-6c1-1,2.1-1.9,3.2-2.9l3.2-2.8c2.1-1.9,4.4-3.6,6.6-5.3c1.1-0.8,2.2-1.7,3.3-2.5
					c1.1-0.8,2.2-1.5,3.4-2.3c2.2-1.5,4.3-3.1,6.6-4.4c2.2-1.3,4.3-2.7,6.5-3.9c2.2-1.2,4.3-2.3,6.3-3.4c0.5-0.3,1-0.5,1.5-0.8
					c0.5-0.2,1-0.5,1.5-0.7c1-0.5,2-0.9,3-1.4c2-0.9,3.8-1.9,5.7-2.5c1.1-0.4,2.2-0.9,3.3-1.3c1.8-0.7,3.7,0.2,4.1,2l6.5,25.9
					c0.4,1.8,1.7,1.9,2.9,0.2l46.3-68.6C832.9,205.4,832.4,203.6,830.7,203z"/>
			</g>
		</g>
		<g>
			<g>
				<path class="st11" d="M896.8,493.2l-7-48.6c-0.2-1.2-1.3-1.7-2.5-1.1l-16.7,8.3c-1.2,0.6-2.2,1-2.2,1c0,0,0,0-0.1,0
					c-3.1-2.1-6.4-4-10.1-6.2c-1.8-1.1-3.8-2.1-5.9-3.3c-1-0.5-2.1-1.1-3.1-1.7c-0.5-0.3-1.1-0.6-1.6-0.8c-0.6-0.3-1.1-0.5-1.7-0.8
					c-2.2-1.1-4.5-2.2-6.8-3.3c-2.4-1.1-4.8-2.1-7.3-3.2c-2.4-1.1-5-2.1-7.6-3.1c-1.3-0.5-2.6-1-3.9-1.5c-1.3-0.5-2.6-0.9-4-1.4
					c-2.7-0.9-5.3-1.9-8-2.7c-1.3-0.4-2.7-0.8-4-1.2c-1.3-0.4-2.7-0.8-4.1-1.2c-2.7-0.7-5.4-1.5-8.1-2.1c-2.7-0.6-5.4-1.2-8-1.8
					c-2.7-0.5-5.3-1-7.9-1.5c-1.3-0.3-2.6-0.4-3.9-0.6c-1.3-0.2-2.5-0.4-3.8-0.5c-1.2-0.2-2.5-0.4-3.7-0.5c-1.2-0.1-2.4-0.3-3.6-0.4
					c-2.4-0.2-4.7-0.5-6.9-0.6c-2.2-0.1-4.4-0.3-6.5-0.4c-2.1,0-4.1-0.1-6-0.1c-1,0-1.9,0-2.9-0.1c-0.9,0-1.7,0.1-2.6,0.1
					c-1.7,0-3.3,0.1-4.7,0.1c-1.5,0.1-2.9,0-4.2,0.2c-1.3,0.1-2.4,0.2-3.5,0.3c-1.5,0.1-2.7,0.2-3.7,0.3c-1.6,0.1-1.5,0.4,0.2,0.5
					c1.1,0.1,2.4,0.2,3.9,0.3c1.1,0.1,2.3,0.2,3.6,0.3c1.3,0.1,2.8,0.4,4.3,0.6c1.6,0.2,3.2,0.5,5,0.7c0.9,0.1,1.8,0.2,2.7,0.4
					c0.9,0.2,1.8,0.3,2.7,0.5c1.9,0.4,3.8,0.7,5.9,1.1c2,0.5,4.1,0.9,6.2,1.4c2.1,0.4,4.3,1.1,6.5,1.7c1.1,0.3,2.2,0.6,3.4,0.9
					c1.1,0.3,2.3,0.7,3.4,1c1.1,0.4,2.3,0.7,3.4,1.1c1.2,0.3,2.3,0.7,3.5,1.1c2.3,0.8,4.6,1.6,6.9,2.5c2.3,0.9,4.6,1.8,6.9,2.7
					c2.3,1,4.5,2,6.8,3c1.1,0.5,2.2,1,3.3,1.6l3.3,1.6c2.2,1,4.3,2.2,6.4,3.3c1,0.6,2.1,1.1,3.1,1.7c1,0.6,2,1.2,3,1.8
					c2,1.2,3.9,2.2,5.7,3.5c1.8,1.2,3.6,2.3,5.4,3.5c1.7,1.2,3.3,2.3,4.9,3.5c0.4,0.3,0.8,0.6,1.2,0.8c0.4,0.3,0.7,0.6,1.1,0.9
					c0.7,0.6,1.5,1.1,2.2,1.7c1.4,1.1,2.8,2.1,4,3.2c0.8,0.6,1.5,1.3,2.2,1.9c1.2,1,1.2,2.4,0,3l-17.3,8.5c-1.2,0.6-0.8,1.4,0.9,1.9
					l69,18C895.7,495,896.9,494.4,896.8,493.2z"/>
			</g>
		</g>
		<g>
			<g>
				<path class="st11" d="M476.2,523l46.3,26.5c1.1,0.6,2.2,0,2.3-1.4l2.1-19.6c0.2-1.4,0.3-2.5,0.4-2.6c0,0,0.1,0,0.1,0
					c3.5-1.2,7.1-2.8,11.1-4.4c2-0.8,4-1.8,6.1-2.8c1-0.5,2.1-1,3.2-1.5c0.5-0.3,1.1-0.5,1.6-0.8c0.5-0.3,1.1-0.6,1.6-0.9
					c2.2-1.2,4.4-2.3,6.7-3.5c2.3-1.3,4.5-2.6,6.9-4c2.3-1.3,4.6-2.9,6.9-4.3c1.2-0.7,2.3-1.5,3.5-2.2c1.1-0.8,2.3-1.6,3.4-2.4
					c2.3-1.6,4.6-3.2,6.8-5c1.1-0.9,2.2-1.7,3.3-2.6c1.1-0.9,2.2-1.7,3.3-2.6c2.1-1.8,4.3-3.6,6.4-5.4c2-1.9,4.1-3.7,6.1-5.6
					c1.9-1.9,3.8-3.8,5.7-5.6c0.9-0.9,1.8-1.9,2.7-2.8c0.9-0.9,1.7-1.9,2.6-2.8c0.8-0.9,1.7-1.8,2.5-2.8c0.8-0.9,1.6-1.9,2.4-2.8
					c1.5-1.8,3.1-3.6,4.4-5.4c1.4-1.8,2.7-3.5,4-5.2c1.2-1.7,2.3-3.3,3.4-4.9c0.6-0.8,1.1-1.6,1.7-2.4c0.5-0.8,0.9-1.5,1.4-2.2
					c0.9-1.4,1.7-2.8,2.5-4.1c0.8-1.3,1.6-2.5,2.2-3.6c0.6-1.1,1.2-2.2,1.7-3.1c0.7-1.3,1.3-2.4,1.8-3.3c0.8-1.4,0.5-1.5-0.6-0.2
					c-0.7,0.8-1.5,1.9-2.5,3.1c-0.7,0.9-1.5,1.8-2.3,2.8c-0.8,1-1.9,2.1-2.9,3.3c-1.1,1.2-2.2,2.4-3.4,3.7c-0.6,0.7-1.2,1.3-1.8,2
					c-0.6,0.6-1.3,1.3-1.9,1.9c-1.4,1.3-2.8,2.7-4.2,4.2c-1.5,1.4-3.1,2.8-4.7,4.3c-1.6,1.5-3.4,2.9-5.1,4.4
					c-0.9,0.7-1.8,1.5-2.7,2.2c-0.9,0.7-1.9,1.4-2.8,2.2c-0.9,0.7-1.9,1.4-2.8,2.2c-0.9,0.7-1.9,1.5-2.9,2.2c-2,1.4-4,2.8-6,4.2
					c-2.1,1.3-4.1,2.7-6.2,4c-2.1,1.3-4.3,2.5-6.4,3.7c-1,0.6-2.1,1.2-3.2,1.8l-3.2,1.7c-2.1,1.2-4.3,2.1-6.4,3.2
					c-1.1,0.5-2.1,1-3.2,1.5c-1.1,0.4-2.1,0.9-3.2,1.3c-2.1,0.9-4.2,1.8-6.2,2.5c-2.1,0.7-4.1,1.5-6,2.2c-2,0.6-3.9,1.2-5.8,1.8
					c-0.5,0.1-0.9,0.3-1.4,0.4c-0.5,0.1-0.9,0.2-1.4,0.4c-0.9,0.2-1.8,0.5-2.7,0.7c-1.7,0.4-3.4,0.9-5,1.2c-1,0.2-2,0.4-2.9,0.6
					c-1.6,0.3-2.8-0.5-2.6-1.9l2.2-20.2c0.2-1.4-0.8-1.6-2.1-0.5l-54.2,46C475.2,520.9,475.1,522.4,476.2,523z"/>
			</g>
		</g>
	</g>
	<g>
		<path class="st11" d="M1247.7,245.4l-15.4-7.6c-0.4-0.2-0.9-0.3-1.5-0.3c-0.5,0-0.8,0.1-0.9,0.2l-0.5,3l-52.9-9.3
			c-0.4-0.1-0.7-0.1-1-0.1c-0.3,0-0.4,0.1-0.4,0.2l-0.5,2.6c0,0.1,0.1,0.2,0.3,0.4c0.2,0.1,0.6,0.2,1,0.3l52.9,9.3l-0.5,3
			c0,0.2,0.2,0.4,0.7,0.5c0.5,0.2,1,0.2,1.5,0.2l17.1-1.9c0.3,0,0.5-0.1,0.5-0.2C1248.1,245.7,1248,245.6,1247.7,245.4z"/>
	</g>
	<g>
		<path class="st11" d="M1250.7,186.9l-17-2.4c-0.5-0.1-1,0-1.5,0.1c-0.5,0.1-0.8,0.3-0.8,0.5l0.4,3l-53.1,7.5
			c-0.4,0.1-0.7,0.1-1,0.3c-0.2,0.1-0.4,0.2-0.3,0.4l0.4,2.6c0,0.1,0.2,0.2,0.4,0.3c0.3,0,0.6,0,1,0l53.2-7.5l0.4,3
			c0,0.2,0.3,0.3,0.9,0.3c0.6,0,1-0.1,1.5-0.3l15.7-7.1c0.3-0.1,0.4-0.3,0.4-0.4C1251.2,187.1,1251,187,1250.7,186.9z"/>
	</g>
	<g>
		<path class="st11" d="M468.6,168.6l-14.4,11.7c-0.4,0.3-0.6,0.8-0.6,1.3c0,0.5,0.1,0.9,0.5,1l5.9,2l-16.6,48.3
			c-0.1,0.4-0.1,0.7-0.1,1c0.1,0.3,0.2,0.5,0.5,0.6l5.1,1.8c0.2,0.1,0.5,0,0.7-0.1c0.2-0.2,0.4-0.4,0.5-0.8l16.6-48.3l5.9,2
			c0.4,0.1,0.7,0,1-0.5c0.3-0.4,0.4-0.9,0.3-1.4l-4.3-18.1c-0.1-0.3-0.3-0.5-0.5-0.6C469.1,168.3,468.9,168.4,468.6,168.6z"/>
	</g>
	<path class="st9" d="M393.5,78.5h-88c-6.6,0-12-5.4-12-12v-21c0-6.6,5.4-12,12-12h88c6.6,0,12,5.4,12,12v21
		C405.5,73.1,400.1,78.5,393.5,78.5z"/>
	<rect x="298" y="49" class="st2" width="100" height="53.3"/>
	<text transform="matrix(1 0 0 1 301.4102 56.8101)" class="st3 st4 st13">Qu’est-ce que c’est ?</text>
	<g>
		<path class="st11" d="M361.5,74.9l2,12.2c0.1,0.3,0.2,0.6,0.5,0.9c0.2,0.3,0.5,0.4,0.6,0.3L367,87l18.8,32.6
			c0.1,0.2,0.3,0.4,0.4,0.5c0.2,0.1,0.3,0.1,0.4,0.1l2.1-1.2c0.1-0.1,0.1-0.2,0.1-0.4c0-0.2-0.1-0.4-0.2-0.7l-18.8-32.6l2.5-1.4
			c0.1-0.1,0.2-0.3,0-0.7c-0.1-0.4-0.3-0.7-0.6-0.9l-9.7-7.8c-0.2-0.1-0.3-0.2-0.4-0.1C361.5,74.6,361.5,74.7,361.5,74.9z"/>
	</g>
	<path class="st9" d="M532.5,77.5h-88c-6.6,0-12-5.4-12-12v-21c0-6.6,5.4-12,12-12h88c6.6,0,12,5.4,12,12v21
		C544.5,72.1,539.1,77.5,532.5,77.5z"/>
	<rect x="433.7" y="43" class="st2" width="112" height="53.3"/>
	<text transform="matrix(1 0 0 1 458.0977 50.8101)"><tspan x="0" y="0" class="st3 st4 st13">Qui est pour ?</tspan><tspan x="-3.9" y="13.2" class="st3 st4 st13">Qui est contre ?</tspan></text>
	<g>
		<path class="st11" d="M478.3,70.9l-6.9,9.3c-0.2,0.3-0.3,0.6-0.3,0.9c0,0.4,0.1,0.6,0.2,0.6l2.7,0.7l-8.4,33.6
			c-0.1,0.3-0.1,0.5,0,0.6c0,0.2,0.1,0.3,0.2,0.3l2.4,0.6c0.1,0,0.2,0,0.3-0.2c0.1-0.1,0.2-0.3,0.3-0.6l8.4-33.6l2.7,0.7
			c0.2,0,0.3-0.1,0.5-0.4c0.2-0.3,0.2-0.6,0.2-1L478.9,71c0-0.2-0.1-0.3-0.2-0.3C478.5,70.7,478.4,70.7,478.3,70.9z"/>
	</g>
	<path class="st9" d="M665.5,92.5h-88c-6.6,0-12-5.4-12-12v-21c0-6.6,5.4-12,12-12h88c6.6,0,12,5.4,12,12v21
		C677.5,87.1,672.1,92.5,665.5,92.5z"/>
	<rect x="572" y="52" class="st2" width="101" height="53.3"/>
	<text transform="matrix(1 0 0 1 587.1572 59.8101)"><tspan x="0" y="0" class="st3 st4 st13">Quelle ampleur </tspan><tspan x="13.2" y="13.2" class="st3 st4 st13">et quelles </tspan><tspan x="-0.9" y="26.4" class="st3 st4 st13">conséquences ?</tspan></text>
	<g>
		<path class="st11" d="M572,80.2l-12.8,5.1c-0.3,0.2-0.7,0.4-1,0.7c-0.3,0.3-0.4,0.5-0.3,0.7l1.6,2l-33.4,26.7
			c-0.3,0.2-0.4,0.4-0.6,0.6c-0.1,0.2-0.1,0.3-0.1,0.4l1.4,1.7c0.1,0.1,0.2,0.1,0.4,0c0.2-0.1,0.4-0.2,0.7-0.4L561.3,91l1.6,2
			c0.1,0.1,0.3,0.1,0.7-0.1c0.4-0.2,0.7-0.5,0.9-0.8l7.8-11.4c0.1-0.2,0.2-0.3,0.1-0.4C572.4,80.1,572.2,80.1,572,80.2z"/>
	</g>
	<path class="st7" d="M333.6,202.2H193c-6.6,0-12-5.4-12-12V143c0-6.6,5.4-12,12-12h140.6c6.6,0,12,5.4,12,12v47.2
		C345.6,196.8,340.2,202.2,333.6,202.2z"/>
	<rect x="181" y="157.9" class="st2" width="166" height="43.1"/>
	<text transform="matrix(1 0 0 1 212.6201 168.3892)" class="st3 st4 st5">Mail Leaks (DNC)</text>
	<g>
		<path class="st11" d="M306.2,186l8.7,19.7c0.3,0.5,0.7,0.9,1.3,1.2c0.6,0.3,1,0.3,1.3,0l4-4.9l48.5,39.3c0.4,0.3,0.7,0.5,1.1,0.5
			c0.3,0.1,0.6,0,0.8-0.2l3.4-4.2c0.2-0.2,0.2-0.5,0.1-0.8c-0.1-0.3-0.4-0.6-0.7-0.9L326,196.5l4-4.9c0.2-0.3,0.2-0.7-0.2-1.2
			c-0.4-0.5-0.9-0.8-1.5-1l-21.2-4.4c-0.4-0.1-0.6,0-0.8,0.2C306.1,185.4,306.1,185.7,306.2,186z"/>
	</g>
	<path class="st7" d="M257.6,282H145c-6.6,0-12-5.4-12-12v-16.8c0-6.6,5.4-12,12-12h112.6c6.6,0,12,5.4,12,12V270
		C269.6,276.6,264.2,282,257.6,282z"/>
	<rect x="119" y="254.9" class="st2" width="166" height="43.1"/>
	<text transform="matrix(1 0 0 1 149.3887 265.3892)" class="st3 st4 st5">Machines à votes</text>
	<path class="st9" d="M226.5,104.5h-88c-6.6,0-12-5.4-12-12v-21c0-6.6,5.4-12,12-12h88c6.6,0,12,5.4,12,12v21
		C238.5,99.1,233.1,104.5,226.5,104.5z"/>
	<rect x="133" y="76" class="st2" width="100" height="53.3"/>
	<text transform="matrix(1 0 0 1 138.0605 83.8101)" class="st3 st4 st13">Quelles méthodes ?</text>
	<path class="st9" d="M141.5,184.5h-88c-6.6,0-12-5.4-12-12v-21c0-6.6,5.4-12,12-12h88c6.6,0,12,5.4,12,12v21
		C153.5,179.1,148.1,184.5,141.5,184.5z"/>
	<rect x="42.7" y="158" class="st2" width="112" height="53.3"/>
	<text transform="matrix(1 0 0 1 57.082 165.8101)" class="st3 st4 st13">Quelles données ?</text>
	<g>
		<path class="st11" d="M145.6,162.9c0,0.1,0.1,0.2,0.3,0.3l11.4,4.9c0.3,0.1,0.7,0.2,1.1,0.1c0.4-0.1,0.6-0.2,0.6-0.3l0.1-2.8
			l37.6,1.3c0.3,0,0.5,0,0.7-0.1c0.2-0.1,0.3-0.2,0.3-0.3l0.1-2.4c0-0.1-0.1-0.2-0.3-0.3c-0.2-0.1-0.4-0.1-0.7-0.1l-37.6-1.3
			l0.1-2.8c0-0.2-0.2-0.3-0.6-0.4c-0.4-0.1-0.7-0.1-1.1,0l-11.7,4C145.7,162.7,145.6,162.8,145.6,162.9z"/>
	</g>
	<g>
		<path class="st11" d="M203.5,94.7l1.8,11.7c0.1,0.3,0.2,0.6,0.5,0.9c0.2,0.3,0.4,0.4,0.6,0.3l2.4-1.5l18.3,30.5
			c0.1,0.2,0.3,0.4,0.4,0.5c0.2,0.1,0.3,0.1,0.4,0.1l2.1-1.3c0.1-0.1,0.1-0.2,0.1-0.4c0-0.2-0.1-0.4-0.2-0.6l-18.3-30.5l2.4-1.5
			c0.1-0.1,0.2-0.3,0-0.7c-0.1-0.3-0.3-0.6-0.6-0.8l-9.5-7.1c-0.2-0.1-0.3-0.1-0.4-0.1C203.5,94.4,203.5,94.5,203.5,94.7z"/>
	</g>
	<path class="st7" d="M313,374H197.6c-6.6,0-12-5.4-12-12v-12.8c0-6.6,5.4-12,12-12H313c6.6,0,12,5.4,12,12V362
		C325,368.6,319.6,374,313,374z"/>
	<rect x="173" y="349.9" class="st2" width="166" height="43.1"/>
	<text transform="matrix(1 0 0 1 201.0596 360.3892)" class="st3 st4 st5">Empoisonnement</text>
	<g>
		<path class="st11" d="M318.1,347.2l18.6-7.4c0.5-0.2,0.9-0.6,1.1-1.1c0.2-0.5,0.2-0.9-0.1-1.2l-4.9-4l35.7-44.1
			c0.3-0.3,0.4-0.7,0.5-1c0-0.3,0-0.6-0.2-0.7l-4.2-3.4c-0.2-0.2-0.5-0.2-0.8-0.1c-0.3,0.1-0.6,0.3-0.9,0.7L327.3,329l-4.9-4
			c-0.3-0.2-0.7-0.2-1.2,0.2c-0.5,0.4-0.8,0.8-0.9,1.3l-3.3,19.8c0,0.4,0,0.6,0.2,0.8C317.5,347.3,317.8,347.3,318.1,347.2z"/>
	</g>
	<g>
		<path class="st11" d="M261.6,262l22.2,9.9c0.6,0.2,1.3,0.3,2,0.1c0.7-0.1,1.1-0.4,1.1-0.8l0-6.3l72.3,0.1c0.5,0,1-0.1,1.3-0.3
			c0.3-0.2,0.5-0.4,0.5-0.6l0-5.4c0-0.3-0.2-0.5-0.5-0.6c-0.3-0.2-0.8-0.3-1.3-0.3l-72.3-0.1l0-6.3c0-0.4-0.4-0.6-1.1-0.8
			c-0.7-0.2-1.4-0.1-2,0.2l-22.3,9.9c-0.4,0.2-0.6,0.4-0.6,0.7C261,261.6,261.2,261.8,261.6,262z"/>
	</g>
	<g>
		<path class="st11" d="M287.7,522.4l10.4,10c0.3,0.2,0.6,0.3,1,0.2c0.4-0.1,0.5-0.4,0.5-0.8l0.1-6.3l34.3,0.6
			c0.3,0,0.5-0.1,0.6-0.2c0.2-0.2,0.3-0.4,0.3-0.6l0.1-5.4c0-0.3-0.1-0.5-0.2-0.6c-0.2-0.2-0.4-0.3-0.6-0.3l-34.3-0.6l0.1-6.3
			c0-0.4-0.2-0.6-0.5-0.8c-0.3-0.2-0.7-0.1-1,0.2l-10.7,9.8c-0.2,0.2-0.3,0.4-0.3,0.7C287.5,522,287.6,522.2,287.7,522.4z"/>
	</g>
	<g>
		<path class="st11" d="M293.5,570l13.8,4.2c0.4,0.1,0.7,0,0.9-0.3c0.2-0.3,0.3-0.6,0.1-1l-2.8-5.7l30.9-15.1
			c0.2-0.1,0.4-0.3,0.5-0.5c0.1-0.2,0.1-0.5-0.1-0.7l-2.4-4.8c-0.1-0.2-0.3-0.4-0.5-0.5c-0.2-0.1-0.4-0.1-0.7,0.1l-30.9,15.1
			l-2.8-5.7c-0.2-0.3-0.4-0.5-0.8-0.5c-0.4,0-0.6,0.2-0.8,0.6l-5.1,13.6c-0.1,0.2-0.1,0.5,0,0.7C293.1,569.8,293.3,569.9,293.5,570z
			"/>
	</g>
	<g>
		<path class="st11" d="M363.1,595.5L374,586c0.3-0.3,0.4-0.6,0.2-0.9c-0.1-0.4-0.4-0.6-0.8-0.6l-6.3-0.7l3.6-34.1
			c0-0.3,0-0.5-0.2-0.7c-0.2-0.2-0.4-0.3-0.6-0.3l-5.4-0.6c-0.3,0-0.5,0-0.7,0.2c-0.2,0.1-0.3,0.3-0.3,0.6l-3.6,34.1l-6.3-0.7
			c-0.4,0-0.7,0.1-0.9,0.4c-0.2,0.3-0.2,0.7,0.1,1l8.8,11.5c0.2,0.2,0.4,0.3,0.6,0.3C362.7,595.7,362.9,595.6,363.1,595.5z"/>
	</g>
	<g>
		<path class="st11" d="M451,594.5l4.7-13.6c0.1-0.4,0-0.7-0.3-0.9c-0.3-0.3-0.6-0.3-1-0.1l-5.7,2.6l-14-31.4
			c-0.1-0.2-0.3-0.4-0.5-0.5c-0.2-0.1-0.5-0.1-0.7,0l-4.9,2.2c-0.2,0.1-0.4,0.3-0.5,0.5c-0.1,0.2-0.1,0.4,0,0.7l14,31.4l-5.7,2.6
			c-0.3,0.2-0.5,0.4-0.5,0.8c0,0.4,0.2,0.6,0.5,0.8l13.4,5.6c0.2,0.1,0.5,0.1,0.7,0C450.7,594.9,450.9,594.8,451,594.5z"/>
	</g>
	<g>
		<path class="st11" d="M516.8,562.6l-5.2-13.5c-0.2-0.3-0.4-0.5-0.8-0.5c-0.4,0-0.7,0.1-0.8,0.5l-2.8,5.7l-30.9-15.1
			c-0.2-0.1-0.5-0.1-0.7-0.1c-0.2,0.1-0.4,0.2-0.5,0.5l-2.4,4.8c-0.1,0.2-0.1,0.5-0.1,0.7c0.1,0.2,0.2,0.4,0.5,0.5l30.9,15.1
			l-2.8,5.7c-0.2,0.3-0.1,0.7,0.1,1c0.2,0.3,0.6,0.4,0.9,0.3l13.9-4.3c0.2-0.1,0.4-0.2,0.5-0.5C516.9,563.1,516.9,562.9,516.8,562.6
			z"/>
	</g>
	<g>
		<path class="st11" d="M978,607.7l9.9-12.4c0.2-0.3,0.3-0.7,0.2-1.1c-0.1-0.4-0.4-0.6-0.8-0.6l-6.3-0.1l0.4-40.7
			c0-0.3-0.1-0.6-0.2-0.8c-0.2-0.2-0.4-0.3-0.6-0.3l-5.4,0c-0.3,0-0.5,0.1-0.6,0.3c-0.2,0.2-0.3,0.4-0.3,0.7l-0.4,40.7l-6.3-0.1
			c-0.4,0-0.6,0.2-0.8,0.6c-0.2,0.4-0.1,0.8,0.2,1.1l9.8,12.6c0.2,0.2,0.4,0.3,0.7,0.3C977.6,608,977.8,607.9,978,607.7z"/>
	</g>
	<g>
		<path class="st11" d="M1098.7,522.4l-13-9.9c-0.4-0.2-0.8-0.3-1.2-0.2c-0.4,0.1-0.6,0.4-0.7,0.8l-0.1,6.3l-42.4-0.4
			c-0.3,0-0.6,0.1-0.8,0.2c-0.2,0.2-0.3,0.4-0.3,0.6l0,5.4c0,0.3,0.1,0.5,0.3,0.6c0.2,0.2,0.5,0.3,0.8,0.3l42.4,0.4l-0.1,6.3
			c0,0.4,0.2,0.6,0.6,0.8c0.4,0.2,0.8,0.1,1.2-0.2l13.1-9.8c0.2-0.2,0.3-0.4,0.3-0.7C1099,522.8,1098.9,522.6,1098.7,522.4z"/>
	</g>
	<g>
		<path class="st11" d="M971.4,673.3l4.6-10.9c0.1-0.3,0.1-0.6,0.1-1c-0.1-0.4-0.2-0.5-0.4-0.5l-3,0l-0.5-35.1c0-0.3,0-0.5-0.1-0.6
			c-0.1-0.2-0.2-0.3-0.3-0.2l-2.6,0c-0.1,0-0.2,0.1-0.3,0.3c-0.1,0.2-0.1,0.4-0.1,0.6l0.5,35.1l-3,0c-0.2,0-0.3,0.2-0.4,0.5
			c-0.1,0.4,0,0.7,0.1,1l5,10.7c0.1,0.2,0.2,0.3,0.3,0.3C971.2,673.5,971.3,673.5,971.4,673.3z"/>
	</g>
	<g>
		<path class="st11" d="M1102.8,653.7l-12.2-12.1c-0.3-0.3-0.8-0.6-1.3-0.8c-0.5-0.2-0.8-0.2-0.9,0l-1.5,2.7l-47.1-25.7
			c-0.4-0.2-0.7-0.3-0.9-0.4c-0.3-0.1-0.4,0-0.5,0.1l-1.2,2.3c-0.1,0.1,0,0.3,0.2,0.5c0.2,0.2,0.5,0.4,0.8,0.6l47.1,25.7l-1.5,2.7
			c-0.1,0.2,0.1,0.4,0.5,0.7c0.4,0.3,0.9,0.5,1.4,0.6l16.8,3.7c0.3,0.1,0.5,0,0.5-0.1C1103.1,654,1103,653.9,1102.8,653.7z"/>
	</g>
</g>
</svg>
